<svg width="24" height="24" viewBox="0 0 24 24" fill="none" xmlns="http://www.w3.org/2000/svg">
<g clipPath="url(#clip0_1165_7699)">
<path d="M2 21V19.5H11.25V7.4C10.8167 7.25 10.4292 7.00417 10.0875 6.6625C9.74583 6.32083 9.5 5.93333 9.35 5.5H5.375L8.5 13.05C8.48333 13.8 8.1625 14.4375 7.5375 14.9625C6.9125 15.4875 6.15 15.75 5.25 15.75C4.35 15.75 3.5875 15.4875 2.9625 14.9625C2.3375 14.4375 2.01667 13.8 2 13.05L5.125 5.5H3V4H9.35C9.55 3.41667 9.89167 2.9375 10.375 2.5625C10.8583 2.1875 11.4 2 12 2C12.6 2 13.1417 2.1875 13.625 2.5625C14.1083 2.9375 14.45 3.41667 14.65 4H21V5.5H18.875L22 13.05C21.9833 13.8 21.6625 14.4375 21.0375 14.9625C20.4125 15.4875 19.65 15.75 18.75 15.75C17.85 15.75 17.0875 15.4875 16.4625 14.9625C15.8375 14.4375 15.5167 13.8 15.5 13.05L18.625 5.5H14.65C14.5 5.93333 14.2542 6.32083 13.9125 6.6625C13.5708 7.00417 13.1833 7.25 12.75 7.4V19.5H22V21H2ZM16.875 13H20.625L18.75 8.4L16.875 13ZM3.375 13H7.125L5.25 8.4L3.375 13ZM12 6C12.35 6 12.6458 5.875 12.8875 5.625C13.1292 5.375 13.25 5.08333 13.25 4.75C13.25 4.4 13.1292 4.10417 12.8875 3.8625C12.6458 3.62083 12.35 3.5 12 3.5C11.6667 3.5 11.375 3.62083 11.125 3.8625C10.875 4.10417 10.75 4.4 10.75 4.75C10.75 5.08333 10.875 5.375 11.125 5.625C11.375 5.875 11.6667 6 12 6Z" fill="#91919D"/>
</g>
<defs>
<clipPath id="clip0_1165_7699">
<rect width="24" height="24" fill="white"/>
</clipPath>
</defs>
</svg>
