<svg width="180" height="27" viewBox="0 0 180 27" fill="none" xmlns="http://www.w3.org/2000/svg">
<path d="M165.843 15.8969L161.708 13.2656L160.866 18.557L160.022 23.8474L164.999 21.1882L169.976 18.5281L165.843 15.8969Z" fill="#FF7358"/>
<path d="M159.259 0.0507812L155.046 26.5049L160.023 23.8456L161.708 13.2638L162.552 7.97337L174.954 15.8671L179.931 13.207L159.259 0.0507812Z" fill="#08090B"/>
<path d="M14.8318 7.96484L14.3499 10.9998H4.47647L4.35577 11.7584H14.2292L13.7472 14.7933H3.87382L3.27116 18.5877H0.233398L1.92066 7.96484H14.8318Z" fill="#FF7358"/>
<path d="M25.7961 15.5527L27.0014 7.96484H30.0392L28.3519 18.5877H20.7571C16.7064 18.5877 14.9221 17.0698 15.404 14.0348L16.3679 7.96484H19.4057L18.4418 14.0348C18.2808 15.0468 19.2132 15.5527 21.239 15.5527H25.7961Z" fill="#FF7358"/>
<path d="M39.4488 10.9998L38.2435 18.5877H35.2057L36.411 10.9998H31.0947L31.5767 7.96484H45.2471L44.7651 10.9998H39.4488Z" fill="#FF7358"/>
<path d="M56.2121 15.5527L57.4174 7.96484H60.4552L58.7679 18.5877H51.1731C47.1224 18.5877 45.3381 17.0698 45.82 14.0348L46.7839 7.96484H49.8217L48.8578 14.0348C48.6969 15.0468 49.6293 15.5527 51.655 15.5527H56.2121Z" fill="#FF7358"/>
<path d="M61.9918 7.96572H69.5867C73.6373 7.96572 75.4619 9.23022 75.0596 11.7592C74.7683 13.5952 73.5131 14.7662 71.2967 15.2722L74.0887 18.5877H69.7896L67.2338 15.5527H63.8234L63.3415 18.5877H60.3037L61.991 7.96484L61.9918 7.96572ZM64.5477 11.0007L64.3062 12.5186H68.8633C70.8882 12.5186 71.9413 12.2661 72.0218 11.7601C72.1023 11.2541 71.1296 11.0016 69.1047 11.0016H64.5477V11.0007Z" fill="#FF7358"/>
<path d="M79.0324 15.5527H88.9058L88.4238 18.5877H75.5127L77.2 7.96484H90.1111L89.6292 10.9998H79.7558L79.6351 11.7584H88.7492L88.2673 14.7933H79.1531L79.0324 15.5519V15.5527Z" fill="#FF7358"/>
<path d="M100.21 7.96484H107.046L106.564 10.9998H99.728C97.7031 10.9998 96.6098 11.5058 96.4488 12.5178L96.2074 14.0357C96.0465 15.0476 96.9789 15.5536 99.0046 15.5536H105.84L105.358 18.5886H98.5227C94.472 18.5886 92.6877 17.0707 93.1696 14.0357L93.4111 12.5178C93.893 9.48277 96.1593 7.96484 100.21 7.96484Z" fill="#08090B"/>
<path d="M110.295 16.3113L109.933 18.5877H106.896L107.859 12.5178C108.341 9.48277 110.608 7.96484 114.658 7.96484H122.253L120.566 18.5877H117.528L117.889 16.3113H110.295ZM110.776 13.2763H118.371L118.733 10.9998H114.175C112.151 10.9998 111.057 11.5058 110.896 12.5178L110.776 13.2763H110.776Z" fill="#08090B"/>
<path d="M129.107 7.96484H137.461L136.979 10.9998H128.625C127.106 10.9998 126.326 11.1265 126.286 11.3791C126.246 11.6325 126.985 11.7584 128.504 11.7584H131.542C135.086 11.7584 136.677 12.8961 136.316 15.1726C135.955 17.4491 134.002 18.5868 130.458 18.5868H122.104L122.585 15.5519H130.94C132.459 15.5519 133.238 15.4252 133.278 15.1726C133.319 14.92 132.58 14.7933 131.06 14.7933H128.022C124.478 14.7933 122.887 13.6555 123.248 11.3791C123.61 9.10263 125.563 7.96484 129.107 7.96484Z" fill="#08090B"/>
<path d="M140.951 14.7933L140.348 18.5877H137.311L138.998 7.96484H142.036L141.433 11.7584H149.028L149.63 7.96484H152.668L150.981 18.5877H147.943L148.546 14.7933H140.951Z" fill="#08090B"/>
</svg>
